{
  "accessors": [
    {
      "bufferView": 2,
      "componentType": 5126,
      "count": 1042,
      "max": [
        1.0096714496612549,
        1.0117576122283936,
        1.0394632816314697
      ],
      "min": [
        -1.0096714496612549,
        -1.0117576122283936,
        -1.0394632816314697
      ],
      "type": "VEC3"
    },
    {
      "bufferView": 2,
      "byteOffset": 12504,
      "componentType": 5126,
      "count": 1042,
      "max": [
        0.997362494468689,
        0.9996839165687561,
        0.9998652935028076
      ],
      "min": [
        -0.997362494468689,
        -0.9990048408508301,
        -0.9999380111694336
      ],
      "type": "VEC3"
    },
    {
      "bufferView": 1,
      "componentType": 5126,
      "count": 1042,
      "max": [
        0.9824283719062805,
        0.9794102907180786
      ],
      "min": [
        0.029223144054412842,
        0.02359597384929657
      ],
      "type": "VEC2"
    },
    {
      "bufferView": 0,
      "componentType": 5125,
      "count": 6048,
      "type": "SCALAR"
    },
    {
      "bufferView": 2,
      "byteOffset": 25008,
      "componentType": 5126,
      "count": 1042,
      "max": [
        0.9964458346366882,
        0.998504638671875,
        1.0258474349975586
      ],
      "min": [
        -0.9964458346366882,
        -0.998504638671875,
        -1.0258474349975586
      ],
      "type": "VEC3"
    },
    {
      "bufferView": 2,
      "byteOffset": 37512,
      "componentType": 5126,
      "count": 1042,
      "max": [
        0.9973623752593994,
        0.9996839165687561,
        0.9998652338981628
      ],
      "min": [
        -0.9973623752593994,
        -0.9990048408508301,
        -0.999937891960144
      ],
      "type": "VEC3"
    },
    {
      "bufferView": 3,
      "componentType": 5126,
      "count": 1042,
      "max": [
        0.9620600342750549,
        0.8615913987159729,
        0.9980022311210632,
        1.0
      ],
      "min": [
        -0.27841001749038696,
        -0.46537673473358154,
        -0.9987081289291382,
        1.0
      ],
      "type": "VEC4"
    },
    {
      "bufferView": 1,
      "byteOffset": 8336,
      "componentType": 5126,
      "count": 1042,
      "max": [
        0.9824283719062805,
        0.9794102907180786
      ],
      "min": [
        0.029223144054412842,
        0.02359597384929657
      ],
      "type": "VEC2"
    },
    {
      "bufferView": 0,
      "byteOffset": 24192,
      "componentType": 5125,
      "count": 6048,
      "type": "SCALAR"
    }
  ],
  "asset": {
    "extras": {
      "author": "CrisLArt (https://sketchfab.com/crispichu25)",
      "license": "CC-BY-4.0 (http://creativecommons.org/licenses/by/4.0/)",
      "source": "https://sketchfab.com/3d-models/eyeball-730c88e5c0a440818fefd9f7e9e1c82e",
      "title": "EyeBall"
    },
    "generator": "Sketchfab-12.56.0",
    "version": "2.0"
  },
  "bufferViews": [
    {
      "buffer": 0,
      "byteLength": 48384,
      "name": "floatBufferViews",
      "target": 34963
    },
    {
      "buffer": 0,
      "byteLength": 16672,
      "byteOffset": 48384,
      "byteStride": 8,
      "name": "floatBufferViews",
      "target": 34962
    },
    {
      "buffer": 0,
      "byteLength": 50016,
      "byteOffset": 65056,
      "byteStride": 12,
      "name": "floatBufferViews",
      "target": 34962
    },
    {
      "buffer": 0,
      "byteLength": 16672,
      "byteOffset": 115072,
      "byteStride": 16,
      "name": "floatBufferViews",
      "target": 34962
    }
  ],
  "buffers": [
    {
      "byteLength": 131744,
      "uri": "scene.bin"
    }
  ],
  "images": [
    {
      "uri": "textures/iris1_baseColor.png"
    },
    {
      "uri": "textures/iris1_normal.png"
    }
  ],
  "materials": [
    {
      "alphaMode": "BLEND",
      "doubleSided": true,
      "name": "cornea1",
      "pbrMetallicRoughness": {
        "baseColorFactor": [
          1.0,
          1.0,
          1.0,
          0.0
        ],
        "metallicFactor": 0.0,
        "roughnessFactor": 0.0
      }
    },
    {
      "doubleSided": true,
      "name": "iris1",
      "normalTexture": {
        "index": 1
      },
      "pbrMetallicRoughness": {
        "baseColorTexture": {
          "index": 0
        },
        "metallicFactor": 0.0,
        "roughnessFactor": 0.0
      }
    }
  ],
  "meshes": [
    {
      "name": "cornea_cornea1_0",
      "primitives": [
        {
          "attributes": {
            "NORMAL": 1,
            "POSITION": 0,
            "TEXCOORD_0": 2
          },
          "indices": 3,
          "material": 0,
          "mode": 4
        }
      ]
    },
    {
      "name": "iris_iris1_0",
      "primitives": [
        {
          "attributes": {
            "NORMAL": 5,
            "POSITION": 4,
            "TANGENT": 6,
            "TEXCOORD_0": 7
          },
          "indices": 8,
          "material": 1,
          "mode": 4
        }
      ]
    }
  ],
  "nodes": [
    {
      "children": [
        1
      ],
      "matrix": [
        1.0,
        0.0,
        0.0,
        0.0,
        0.0,
        2.220446049250313e-16,
        -1.0,
        0.0,
        0.0,
        1.0,
        2.220446049250313e-16,
        0.0,
        0.0,
        0.0,
        0.0,
        1.0
      ],
      "name": "Sketchfab_model"
    },
    {
      "children": [
        2
      ],
      "matrix": [
        0.009999999776482582,
        0.0,
        0.0,
        0.0,
        0.0,
        0.0,
        0.009999999776482582,
        0.0,
        0.0,
        -0.009999999776482582,
        0.0,
        0.0,
        0.0,
        0.0,
        0.0,
        1.0
      ],
      "name": "4caaebc24dad43abbeac4b6a5141ba91.fbx"
    },
    {
      "children": [
        3,
        5
      ],
      "name": "RootNode"
    },
    {
      "children": [
        4
      ],
      "name": "cornea"
    },
    {
      "mesh": 0,
      "name": "cornea_cornea1_0"
    },
    {
      "children": [
        6
      ],
      "name": "iris"
    },
    {
      "mesh": 1,
      "name": "iris_iris1_0"
    }
  ],
  "samplers": [
    {
      "magFilter": 9729,
      "minFilter": 9987,
      "wrapS": 10497,
      "wrapT": 10497
    }
  ],
  "scene": 0,
  "scenes": [
    {
      "name": "Sketchfab_Scene",
      "nodes": [
        0
      ]
    }
  ],
  "textures": [
    {
      "sampler": 0,
      "source": 0
    },
    {
      "sampler": 0,
      "source": 1
    }
  ]
}
